#!OML:ASF H:\Terrain\Patient Classification 1\Animal1\Tuesday\Animal1.ASF
:FULLY-SPECIFIED
:DEGREES
3092
root -0.563847 16.0573 -13.2727 11.1191 26.3303 -2.3469
lowerback -7.78988 -0.880685 0.0562884
upperback -10.9129 -0.880269 2.87729
thorax -7.05571 -0.245712 2.97571
lowerneck -1.3578 18.0185 7.67029
upperneck 14.3575 22.8702 9.727
head 4.30483 12.1994 2.75643
rclavicle -4.59193e-014 -7.55382e-015
rhumerus -15.0313 15.8177 -6.3573
rradius 19.0334
rwrist -7.49049
rhand -7.27865 5.321
rfingers 7.12502
rthumb 18.6028 -23.8095
lclavicle -4.59193e-014 -7.55382e-015
lhumerus 12.0815 11.2082 47.5107
lradius 34.2565
lwrist -7.81149
lhand 30.908 21.6332
lfingers 7.12502
lthumb 54.5214 40.1125
rfemur -8.87724 42.1789 20.8638
rtibia 19.7134
rfoot -58.6095 -45.2786
rtoes 49.3229
lfemur -149.161 66.1577 -150.215
ltibia 12.2522
lfoot 72.6993 -6.26279
ltoes 65.89
3093
root -0.563299 16.0606 -13.2756 11.0044 26.3404 -2.37745
lowerback -7.63954 -0.858434 0.104154
upperback -10.8966 -0.851602 2.86146
thorax -7.12479 -0.235551 2.93481
lowerneck -1.17149 17.9731 7.63129
upperneck 13.7853 22.9018 9.40109
head 4.56594 12.1539 2.92549
rclavicle -8.94531e-015 -1.31198e-014
rhumerus -15.3298 16.0209 -6.69111
rradius 19.1215
rwrist -7.27468
rhand -7.22908 4.64689
rfingers 7.12502
rthumb 18.6505 -24.479
lclavicle -8.94531e-015 -1.31198e-014
lhumerus 11.788 10.4921 47.349
lradius 33.5172
lwrist -8.923
lhand 30.8676 21.6506
lfingers 7.12502
lthumb 54.4852 40.1552
rfemur -8.68368 41.2116 20.9748
rtibia 19.5387
rfoot -56.7047 -45.9013
rtoes 48.5032
lfemur -149.504 66.1958 -150.44
ltibia 12.4372
lfoot 72.703 -6.49013
ltoes 65.7217
3094
root -0.564886 16.0614 -13.2781 10.8641 26.3597 -2.56558
lowerback -7.51018 -0.812705 0.288428
upperback -10.8894 -0.793854 2.85273
thorax -7.19529 -0.220485 2.82508
lowerneck -1.11795 17.8957 7.72496
upperneck 13.794 22.809 9.29477
head 4.58742 12.107 2.87609
rclavicle -3.77691e-015 -1.59028e-015
rhumerus -15.7145 16.3997 -7.14993
rradius 19.1974
rwrist -7.33724
rhand -7.13318 4.35887
rfingers 7.12502
rthumb 18.7427 -24.7582
lclavicle -3.77691e-015 -1.59028e-015
lhumerus 11.5124 9.6172 47.1416
lradius 32.81
lwrist -10.1238
lhand 29.5183 22.3981
lfingers 7.12502
lthumb 53.2734 41.7158
rfemur -8.60502 40.705 21.2017
rtibia 19.478
rfoot -55.3268 -46.558
rtoes 47.8277
lfemur -149.206 66.4755 -149.893
ltibia 12.4474
lfoot 72.3132 -6.19967
ltoes 65.7003
3095
root -0.567907 16.0644 -13.282 10.8271 26.3927 -2.61146
lowerback -7.40536 -0.837291 0.300858
upperback -10.8619 -0.826752 2.86023
thorax -7.22264 -0.238024 2.82678
lowerneck -1.31174 17.8612 7.64941
upperneck 14.4467 22.6718 9.63341
head 4.33686 12.0995 2.72734
rclavicle 4.04527e-014 -2.22639e-014
rhumerus -15.7708 15.9953 -7.52432
rradius 18.9882
rwrist -6.56661
rhand -7.15764 4.98099
rfingers 7.12502
rthumb 18.7192 -24.1383
lclavicle 4.04527e-014 -2.22639e-014
lhumerus 11.1988 8.90696 46.9075
lradius 32.0836
lwrist -11.4715
lhand 29.0195 22.4653
lfingers 7.12502
lthumb 52.8233 42.0689
rfemur -8.615 40.1527 21.2571
rtibia 19.4846
rfoot -54.7701 -46.1764
rtoes 47.8824
lfemur -149.093 66.4973 -149.763
ltibia 12.4121
lfoot 72.3375 -6.08662
ltoes 65.8755
3096
root -0.567586 16.0681 -13.2854 10.8563 26.4181 -2.39892
lowerback -7.28796 -0.888296 0.0646787
upperback -10.8046 -0.894359 2.80765
thorax -7.21941 -0.258016 2.90351
lowerneck -1.48811 17.8586 7.57878
upperneck 14.6121 22.6332 9.74631
head 4.39559 12.0919 2.79173
rclavicle -2.68359e-014 -1.98785e-015
rhumerus -15.8198 16.2091 -7.95208
rradius 18.7714
rwrist -6.36099
rhand -7.18844 5.39324
rfingers 7.12502
rthumb 18.6896 -23.7289
lclavicle -2.68359e-014 -1.98785e-015
lhumerus 10.9568 8.17666 46.6792
lradius 31.3545
lwrist -12.8577
lhand 29.0136 21.843
lfingers 7.12502
lthumb 52.8179 41.4499
rfemur -8.49239 39.6243 21.1329
rtibia 19.453
rfoot -54.4635 -45.5458
rtoes 48.2101
lfemur -149.15 66.5417 -150.03
ltibia 12.4584
lfoot 72.3643 -6.27183
ltoes 65.9082
